<svg width="235" height="63" viewBox="0 0 235 63" fill="none" xmlns="http://www.w3.org/2000/svg">
<path d="M38.5696 15.3636H42.392V36.2784C42.392 37.5909 42.1534 38.6989 41.6761 39.6023C41.2074 40.5057 40.5085 41.1918 39.5795 41.6605C38.6591 42.1293 37.5213 42.3636 36.1662 42.3636C36.0298 42.3636 35.902 42.3636 35.7827 42.3636C35.6548 42.3636 35.5227 42.3594 35.3864 42.3509V39.0653C35.5057 39.0653 35.6122 39.0653 35.706 39.0653C35.7912 39.0653 35.8892 39.0653 36 39.0653C36.9034 39.0653 37.5554 38.8224 37.956 38.3366C38.3651 37.8594 38.5696 37.1648 38.5696 36.2528V15.3636ZM40.4616 12.3338C39.7969 12.3338 39.2259 12.1122 38.7486 11.669C38.2798 11.2173 38.0455 10.6804 38.0455 10.0582C38.0455 9.42756 38.2798 8.89062 38.7486 8.44744C39.2259 7.99574 39.7969 7.76989 40.4616 7.76989C41.1264 7.76989 41.6932 7.99574 42.1619 8.44744C42.6392 8.89062 42.8778 9.42756 42.8778 10.0582C42.8778 10.6804 42.6392 11.2173 42.1619 11.669C41.6932 12.1122 41.1264 12.3338 40.4616 12.3338ZM55.8058 35.3963C53.9648 35.3963 52.3583 34.9744 50.9862 34.1307C49.614 33.2869 48.5487 32.1065 47.7901 30.5895C47.0316 29.0724 46.6523 27.2997 46.6523 25.2713C46.6523 23.2344 47.0316 21.4531 47.7901 19.9276C48.5487 18.402 49.614 17.2173 50.9862 16.3736C52.3583 15.5298 53.9648 15.108 55.8058 15.108C57.6467 15.108 59.2532 15.5298 60.6254 16.3736C61.9975 17.2173 63.0629 18.402 63.8214 19.9276C64.5799 21.4531 64.9592 23.2344 64.9592 25.2713C64.9592 27.2997 64.5799 29.0724 63.8214 30.5895C63.0629 32.1065 61.9975 33.2869 60.6254 34.1307C59.2532 34.9744 57.6467 35.3963 55.8058 35.3963ZM55.8185 32.1875C57.0117 32.1875 58.0004 31.8722 58.7844 31.2415C59.5685 30.6108 60.1481 29.7713 60.5231 28.723C60.9066 27.6747 61.0984 26.5199 61.0984 25.2585C61.0984 24.0057 60.9066 22.8551 60.5231 21.8068C60.1481 20.75 59.5685 19.902 58.7844 19.2628C58.0004 18.6236 57.0117 18.304 55.8185 18.304C54.6168 18.304 53.6197 18.6236 52.8271 19.2628C52.043 19.902 51.4592 20.75 51.0756 21.8068C50.7006 22.8551 50.5131 24.0057 50.5131 25.2585C50.5131 26.5199 50.7006 27.6747 51.0756 28.723C51.4592 29.7713 52.043 30.6108 52.8271 31.2415C53.6197 31.8722 54.6168 32.1875 55.8185 32.1875ZM73.0483 23.3409V35H69.2259V15.3636H72.8949V18.5597H73.1378C73.5895 17.5199 74.2969 16.6847 75.2599 16.054C76.2315 15.4233 77.4545 15.108 78.929 15.108C80.267 15.108 81.4389 15.3892 82.4446 15.9517C83.4503 16.5057 84.2301 17.3324 84.7841 18.4318C85.3381 19.5312 85.6151 20.8906 85.6151 22.5099V35H81.7926V22.9702C81.7926 21.5469 81.4219 20.4347 80.6804 19.6335C79.9389 18.8239 78.9205 18.419 77.625 18.419C76.7386 18.419 75.9503 18.6108 75.2599 18.9943C74.5781 19.3778 74.0369 19.9403 73.6364 20.6818C73.2443 21.4148 73.0483 22.3011 73.0483 23.3409ZM102.311 22.2798V25.5909H90.7031V22.2798H102.311ZM122.12 20.1577L118.656 20.7713C118.511 20.3281 118.281 19.9062 117.965 19.5057C117.658 19.1051 117.241 18.777 116.712 18.5213C116.184 18.2656 115.523 18.1378 114.731 18.1378C113.648 18.1378 112.745 18.3807 112.021 18.8665C111.296 19.3437 110.934 19.9616 110.934 20.7202C110.934 21.3764 111.177 21.9048 111.663 22.3054C112.148 22.706 112.933 23.0341 114.015 23.2898L117.134 24.0057C118.941 24.4233 120.288 25.0668 121.174 25.9361C122.06 26.8054 122.504 27.9347 122.504 29.3239C122.504 30.5 122.163 31.5483 121.481 32.4688C120.808 33.3807 119.866 34.0966 118.656 34.6165C117.454 35.1364 116.06 35.3963 114.475 35.3963C112.276 35.3963 110.482 34.9276 109.093 33.9901C107.704 33.044 106.852 31.7017 106.536 29.9631L110.231 29.4006C110.461 30.3636 110.934 31.0923 111.65 31.5866C112.366 32.0724 113.299 32.3153 114.45 32.3153C115.702 32.3153 116.704 32.0554 117.454 31.5355C118.204 31.0071 118.579 30.3636 118.579 29.6051C118.579 28.9915 118.349 28.4759 117.888 28.0582C117.437 27.6406 116.742 27.3253 115.805 27.1122L112.481 26.3835C110.648 25.9659 109.293 25.3011 108.415 24.3892C107.546 23.4773 107.112 22.3224 107.112 20.9247C107.112 19.7656 107.435 18.7514 108.083 17.8821C108.731 17.0128 109.626 16.3352 110.768 15.8494C111.91 15.3551 113.218 15.108 114.692 15.108C116.815 15.108 118.485 15.5682 119.704 16.4886C120.923 17.4006 121.728 18.6236 122.12 20.1577ZM130.529 23.3409V35H126.706V15.3636H130.375V18.5597H130.618C131.07 17.5199 131.777 16.6847 132.74 16.054C133.712 15.4233 134.935 15.108 136.409 15.108C137.748 15.108 138.919 15.3892 139.925 15.9517C140.931 16.5057 141.711 17.3324 142.265 18.4318C142.819 19.5312 143.096 20.8906 143.096 22.5099V35H139.273V22.9702C139.273 21.5469 138.902 20.4347 138.161 19.6335C137.419 18.8239 136.401 18.419 135.105 18.419C134.219 18.419 133.431 18.6108 132.74 18.9943C132.059 19.3778 131.517 19.9403 131.117 20.6818C130.725 21.4148 130.529 22.3011 130.529 23.3409ZM156.493 35.3963C154.652 35.3963 153.046 34.9744 151.674 34.1307C150.301 33.2869 149.236 32.1065 148.478 30.5895C147.719 29.0724 147.34 27.2997 147.34 25.2713C147.34 23.2344 147.719 21.4531 148.478 19.9276C149.236 18.402 150.301 17.2173 151.674 16.3736C153.046 15.5298 154.652 15.108 156.493 15.108C158.334 15.108 159.941 15.5298 161.313 16.3736C162.685 17.2173 163.75 18.402 164.509 19.9276C165.267 21.4531 165.647 23.2344 165.647 25.2713C165.647 27.2997 165.267 29.0724 164.509 30.5895C163.75 32.1065 162.685 33.2869 161.313 34.1307C159.941 34.9744 158.334 35.3963 156.493 35.3963ZM156.506 32.1875C157.699 32.1875 158.688 31.8722 159.472 31.2415C160.256 30.6108 160.836 29.7713 161.211 28.723C161.594 27.6747 161.786 26.5199 161.786 25.2585C161.786 24.0057 161.594 22.8551 161.211 21.8068C160.836 20.75 160.256 19.902 159.472 19.2628C158.688 18.6236 157.699 18.304 156.506 18.304C155.304 18.304 154.307 18.6236 153.515 19.2628C152.73 19.902 152.147 20.75 151.763 21.8068C151.388 22.8551 151.201 24.0057 151.201 25.2585C151.201 26.5199 151.388 27.6747 151.763 28.723C152.147 29.7713 152.73 30.6108 153.515 31.2415C154.307 31.8722 155.304 32.1875 156.506 32.1875ZM174.17 35L168.392 15.3636H172.342L176.19 29.7841H176.382L180.243 15.3636H184.193L188.028 29.7202H188.22L192.043 15.3636H195.993L190.227 35H186.328L182.339 20.8224H182.045L178.057 35H174.17Z" fill="black"/>
<line x1="43" y1="40.5" x2="191" y2="40.5" stroke="black" stroke-width="3"/>
<path d="M3.66477 60.1364C3.03409 60.1364 2.49006 59.9972 2.03267 59.7188C1.57812 59.4375 1.22727 59.0455 0.980114 58.5426C0.735795 58.0369 0.613636 57.4489 0.613636 56.7784C0.613636 56.108 0.735795 55.517 0.980114 55.0057C1.22727 54.4915 1.57102 54.0909 2.01136 53.804C2.45455 53.5142 2.97159 53.3693 3.5625 53.3693C3.90341 53.3693 4.24006 53.4261 4.57244 53.5398C4.90483 53.6534 5.20739 53.8381 5.48011 54.0938C5.75284 54.3466 5.97017 54.6818 6.1321 55.0994C6.29403 55.517 6.375 56.0312 6.375 56.642V57.0682H1.32955V56.1989H5.35227C5.35227 55.8295 5.27841 55.5 5.13068 55.2102C4.9858 54.9205 4.77841 54.6918 4.50852 54.5241C4.24148 54.3565 3.92614 54.2727 3.5625 54.2727C3.16193 54.2727 2.81534 54.3722 2.52273 54.571C2.23295 54.767 2.00994 55.0227 1.85369 55.3381C1.69744 55.6534 1.61932 55.9915 1.61932 56.3523V56.9318C1.61932 57.4261 1.70455 57.8452 1.875 58.1889C2.0483 58.5298 2.28835 58.7898 2.59517 58.9688C2.90199 59.1449 3.25852 59.233 3.66477 59.233C3.92898 59.233 4.16761 59.196 4.38068 59.1222C4.59659 59.0455 4.78267 58.9318 4.93892 58.7812C5.09517 58.6278 5.21591 58.4375 5.30114 58.2102L6.27273 58.483C6.17045 58.8125 5.99858 59.1023 5.7571 59.3523C5.51563 59.5994 5.21733 59.7926 4.86222 59.9318C4.5071 60.0682 4.10795 60.1364 3.66477 60.1364ZM8.47905 53.4545L10.0472 56.1307L11.6154 53.4545H12.7745L10.6609 56.7273L12.7745 60H11.6154L10.0472 57.4602L8.47905 60H7.31996L9.3995 56.7273L7.31996 53.4545H8.47905ZM14.2095 62.4545V53.4545H15.1811V54.4943H15.3004C15.3743 54.3807 15.4766 54.2358 15.6072 54.0597C15.7408 53.8807 15.9311 53.7216 16.1783 53.5824C16.4283 53.4403 16.7663 53.3693 17.1925 53.3693C17.7436 53.3693 18.2294 53.5071 18.6499 53.7827C19.0703 54.0582 19.3984 54.4489 19.6342 54.9545C19.87 55.4602 19.9879 56.0568 19.9879 56.7443C19.9879 57.4375 19.87 58.0384 19.6342 58.5469C19.3984 59.0526 19.0717 59.4446 18.6541 59.723C18.2365 59.9986 17.755 60.1364 17.2095 60.1364C16.7891 60.1364 16.4524 60.0668 16.1996 59.9276C15.9467 59.7855 15.7521 59.625 15.6158 59.446C15.4794 59.2642 15.3743 59.1136 15.3004 58.9943H15.2152V62.4545H14.2095ZM15.1982 56.7273C15.1982 57.2216 15.2706 57.6577 15.4155 58.0355C15.5604 58.4105 15.772 58.7045 16.0504 58.9176C16.3288 59.1278 16.6697 59.233 17.0732 59.233C17.4936 59.233 17.8445 59.1222 18.1257 58.9006C18.4098 58.6761 18.6229 58.375 18.7649 57.9972C18.9098 57.6165 18.9822 57.1932 18.9822 56.7273C18.9822 56.267 18.9112 55.8523 18.7692 55.483C18.63 55.1108 18.4183 54.8168 18.1342 54.6009C17.853 54.3821 17.4993 54.2727 17.0732 54.2727C16.6641 54.2727 16.3203 54.3764 16.0419 54.5838C15.7635 54.7884 15.5533 55.0753 15.4112 55.4446C15.2692 55.8111 15.1982 56.2386 15.1982 56.7273ZM24.2663 60.1364C23.6357 60.1364 23.0916 59.9972 22.6342 59.7188C22.1797 59.4375 21.8288 59.0455 21.5817 58.5426C21.3374 58.0369 21.2152 57.4489 21.2152 56.7784C21.2152 56.108 21.3374 55.517 21.5817 55.0057C21.8288 54.4915 22.1726 54.0909 22.6129 53.804C23.0561 53.5142 23.5732 53.3693 24.1641 53.3693C24.505 53.3693 24.8416 53.4261 25.174 53.5398C25.5064 53.6534 25.8089 53.8381 26.0817 54.0938C26.3544 54.3466 26.5717 54.6818 26.7337 55.0994C26.8956 55.517 26.9766 56.0312 26.9766 56.642V57.0682H21.9311V56.1989H25.9538C25.9538 55.8295 25.88 55.5 25.7322 55.2102C25.5874 54.9205 25.38 54.6918 25.1101 54.5241C24.843 54.3565 24.5277 54.2727 24.1641 54.2727C23.7635 54.2727 23.4169 54.3722 23.1243 54.571C22.8345 54.767 22.6115 55.0227 22.4553 55.3381C22.299 55.6534 22.2209 55.9915 22.2209 56.3523V56.9318C22.2209 57.4261 22.3061 57.8452 22.4766 58.1889C22.6499 58.5298 22.8899 58.7898 23.1967 58.9688C23.5036 59.1449 23.8601 59.233 24.2663 59.233C24.5305 59.233 24.7692 59.196 24.9822 59.1222C25.1982 59.0455 25.3842 58.9318 25.5405 58.7812C25.6967 58.6278 25.8175 58.4375 25.9027 58.2102L26.8743 58.483C26.772 58.8125 26.6001 59.1023 26.3587 59.3523C26.1172 59.5994 25.8189 59.7926 25.4638 59.9318C25.1087 60.0682 24.7095 60.1364 24.2663 60.1364ZM29.5121 56.0625V60H28.5064V53.4545H29.478V54.4773H29.5632C29.7166 54.1449 29.9496 53.8778 30.2621 53.6761C30.5746 53.4716 30.978 53.3693 31.4723 53.3693C31.9155 53.3693 32.3033 53.4602 32.6357 53.642C32.968 53.821 33.2266 54.0938 33.4112 54.4602C33.5959 54.8239 33.6882 55.2841 33.6882 55.8409V60H32.6825V55.9091C32.6825 55.3949 32.549 54.9943 32.282 54.7074C32.0149 54.4176 31.6484 54.2727 31.1825 54.2727C30.8615 54.2727 30.5746 54.3423 30.3217 54.4815C30.0717 54.6207 29.8743 54.8239 29.7294 55.0909C29.5845 55.358 29.5121 55.6818 29.5121 56.0625ZM40.1623 54.9205L39.2589 55.1761C39.2021 55.0256 39.1183 54.8793 39.0075 54.7372C38.8995 54.5923 38.7518 54.473 38.5643 54.3793C38.3768 54.2855 38.1367 54.2386 37.8441 54.2386C37.4435 54.2386 37.1097 54.331 36.8427 54.5156C36.5785 54.6974 36.4464 54.929 36.4464 55.2102C36.4464 55.4602 36.5373 55.6577 36.7191 55.8026C36.9009 55.9474 37.185 56.0682 37.5714 56.1648L38.543 56.4034C39.1282 56.5455 39.5643 56.7628 39.8512 57.0554C40.1381 57.3452 40.2816 57.7187 40.2816 58.1761C40.2816 58.5511 40.1737 58.8864 39.9577 59.1818C39.7447 59.4773 39.4464 59.7102 39.0629 59.8807C38.6793 60.0511 38.2333 60.1364 37.7248 60.1364C37.0572 60.1364 36.5046 59.9915 36.0671 59.7017C35.6296 59.4119 35.3526 58.9886 35.2362 58.4318L36.1907 58.1932C36.2816 58.5455 36.4535 58.8097 36.7063 58.9858C36.962 59.1619 37.2958 59.25 37.7077 59.25C38.1765 59.25 38.5487 59.1506 38.8242 58.9517C39.1026 58.75 39.2418 58.5085 39.2418 58.2273C39.2418 58 39.1623 57.8097 39.0032 57.6562C38.8441 57.5 38.5998 57.3835 38.2702 57.3068L37.1793 57.0511C36.5799 56.9091 36.1396 56.6889 35.8583 56.3906C35.5799 56.0895 35.4407 55.7131 35.4407 55.2614C35.4407 54.892 35.5444 54.5653 35.7518 54.2812C35.962 53.9972 36.2475 53.7741 36.6083 53.6122C36.9719 53.4503 37.3839 53.3693 37.8441 53.3693C38.4918 53.3693 39.0004 53.5114 39.3697 53.7955C39.7418 54.0795 40.006 54.4545 40.1623 54.9205ZM44.5398 60.1364C43.9091 60.1364 43.3651 59.9972 42.9077 59.7188C42.4531 59.4375 42.1023 59.0455 41.8551 58.5426C41.6108 58.0369 41.4886 57.4489 41.4886 56.7784C41.4886 56.108 41.6108 55.517 41.8551 55.0057C42.1023 54.4915 42.446 54.0909 42.8864 53.804C43.3295 53.5142 43.8466 53.3693 44.4375 53.3693C44.7784 53.3693 45.1151 53.4261 45.4474 53.5398C45.7798 53.6534 46.0824 53.8381 46.3551 54.0938C46.6278 54.3466 46.8452 54.6818 47.0071 55.0994C47.169 55.517 47.25 56.0312 47.25 56.642V57.0682H42.2045V56.1989H46.2273C46.2273 55.8295 46.1534 55.5 46.0057 55.2102C45.8608 54.9205 45.6534 54.6918 45.3835 54.5241C45.1165 54.3565 44.8011 54.2727 44.4375 54.2727C44.0369 54.2727 43.6903 54.3722 43.3977 54.571C43.108 54.767 42.8849 55.0227 42.7287 55.3381C42.5724 55.6534 42.4943 55.9915 42.4943 56.3523V56.9318C42.4943 57.4261 42.5795 57.8452 42.75 58.1889C42.9233 58.5298 43.1634 58.7898 43.4702 58.9688C43.777 59.1449 44.1335 59.233 44.5398 59.233C44.804 59.233 45.0426 59.196 45.2557 59.1222C45.4716 59.0455 45.6577 58.9318 45.8139 58.7812C45.9702 58.6278 46.0909 58.4375 46.1761 58.2102L47.1477 58.483C47.0455 58.8125 46.8736 59.1023 46.6321 59.3523C46.3906 59.5994 46.0923 59.7926 45.7372 59.9318C45.3821 60.0682 44.983 60.1364 44.5398 60.1364ZM53.4162 54.9205L52.5128 55.1761C52.456 55.0256 52.3722 54.8793 52.2614 54.7372C52.1534 54.5923 52.0057 54.473 51.8182 54.3793C51.6307 54.2855 51.3906 54.2386 51.098 54.2386C50.6974 54.2386 50.3636 54.331 50.0966 54.5156C49.8324 54.6974 49.7003 54.929 49.7003 55.2102C49.7003 55.4602 49.7912 55.6577 49.973 55.8026C50.1548 55.9474 50.4389 56.0682 50.8253 56.1648L51.7969 56.4034C52.3821 56.5455 52.8182 56.7628 53.1051 57.0554C53.392 57.3452 53.5355 57.7187 53.5355 58.1761C53.5355 58.5511 53.4276 58.8864 53.2116 59.1818C52.9986 59.4773 52.7003 59.7102 52.3168 59.8807C51.9332 60.0511 51.4872 60.1364 50.9787 60.1364C50.3111 60.1364 49.7585 59.9915 49.321 59.7017C48.8835 59.4119 48.6065 58.9886 48.4901 58.4318L49.4446 58.1932C49.5355 58.5455 49.7074 58.8097 49.9602 58.9858C50.2159 59.1619 50.5497 59.25 50.9616 59.25C51.4304 59.25 51.8026 59.1506 52.0781 58.9517C52.3565 58.75 52.4957 58.5085 52.4957 58.2273C52.4957 58 52.4162 57.8097 52.2571 57.6562C52.098 57.5 51.8537 57.3835 51.5241 57.3068L50.4332 57.0511C49.8338 56.9091 49.3935 56.6889 49.1122 56.3906C48.8338 56.0895 48.6946 55.7131 48.6946 55.2614C48.6946 54.892 48.7983 54.5653 49.0057 54.2812C49.2159 53.9972 49.5014 53.7741 49.8622 53.6122C50.2259 53.4503 50.6378 53.3693 51.098 53.3693C51.7457 53.3693 52.2543 53.5114 52.6236 53.7955C52.9957 54.0795 53.2599 54.4545 53.4162 54.9205ZM58.7994 55.7898V56.7273H54.9812V55.7898H58.7994ZM60.5689 60V53.4545H61.5405V54.4773H61.6257C61.7621 54.1278 61.9822 53.8565 62.2862 53.6634C62.5902 53.4673 62.9553 53.3693 63.3814 53.3693C63.8132 53.3693 64.1726 53.4673 64.4595 53.6634C64.7493 53.8565 64.9751 54.1278 65.1371 54.4773H65.2053C65.3729 54.1392 65.6243 53.8707 65.9595 53.6719C66.2947 53.4702 66.6967 53.3693 67.1655 53.3693C67.7507 53.3693 68.2294 53.5526 68.6016 53.919C68.9737 54.2827 69.1598 54.8494 69.1598 55.6193V60H68.1541V55.6193C68.1541 55.1364 68.022 54.7912 67.7578 54.5838C67.4936 54.3764 67.1825 54.2727 66.8246 54.2727C66.3643 54.2727 66.0078 54.4119 65.755 54.6903C65.5021 54.9659 65.3757 55.3153 65.3757 55.7386V60H64.353V55.517C64.353 55.1449 64.2322 54.8452 63.9908 54.6179C63.7493 54.3878 63.4382 54.2727 63.0575 54.2727C62.7962 54.2727 62.5518 54.3423 62.3246 54.4815C62.1001 54.6207 61.9183 54.8139 61.7791 55.0611C61.6428 55.3054 61.5746 55.5881 61.5746 55.9091V60H60.5689ZM72.9247 60.1534C72.5099 60.1534 72.1335 60.0753 71.7955 59.919C71.4574 59.7599 71.1889 59.5312 70.9901 59.233C70.7912 58.9318 70.6918 58.5682 70.6918 58.142C70.6918 57.767 70.7656 57.4631 70.9134 57.2301C71.0611 56.9943 71.2585 56.8097 71.5057 56.6761C71.7528 56.5426 72.0256 56.4432 72.3239 56.3778C72.625 56.3097 72.9276 56.2557 73.2315 56.2159C73.6293 56.1648 73.9517 56.1264 74.1989 56.1009C74.4489 56.0724 74.6307 56.0256 74.7443 55.9602C74.8608 55.8949 74.919 55.7812 74.919 55.6193V55.5852C74.919 55.1648 74.804 54.8381 74.5739 54.6051C74.3466 54.3722 74.0014 54.2557 73.5384 54.2557C73.0582 54.2557 72.6818 54.3608 72.4091 54.571C72.1364 54.7812 71.9446 55.0057 71.8338 55.2443L70.8793 54.9034C71.0497 54.5057 71.277 54.196 71.5611 53.9744C71.848 53.75 72.1605 53.5937 72.4986 53.5057C72.8395 53.4148 73.1747 53.3693 73.5043 53.3693C73.7145 53.3693 73.956 53.3949 74.2287 53.446C74.5043 53.4943 74.7699 53.5952 75.0256 53.7486C75.2841 53.902 75.4986 54.1335 75.669 54.4432C75.8395 54.7528 75.9247 55.1676 75.9247 55.6875V60H74.919V59.1136H74.8679C74.7997 59.2557 74.6861 59.4077 74.527 59.5696C74.3679 59.7315 74.1563 59.8693 73.892 59.983C73.6278 60.0966 73.3054 60.1534 72.9247 60.1534ZM73.0781 59.25C73.4759 59.25 73.8111 59.1719 74.0838 59.0156C74.3594 58.8594 74.5668 58.6577 74.706 58.4105C74.848 58.1634 74.919 57.9034 74.919 57.6307V56.7102C74.8764 56.7614 74.7827 56.8082 74.6378 56.8509C74.4957 56.8906 74.331 56.9261 74.1435 56.9574C73.9588 56.9858 73.7784 57.0114 73.6023 57.0341C73.429 57.054 73.2884 57.071 73.1804 57.0852C72.919 57.1193 72.6747 57.1747 72.4474 57.2514C72.223 57.3253 72.0412 57.4375 71.902 57.5881C71.7656 57.7358 71.6974 57.9375 71.6974 58.1932C71.6974 58.5426 71.8267 58.8068 72.0852 58.9858C72.3466 59.1619 72.6776 59.25 73.0781 59.25ZM78.766 56.0625V60H77.7603V53.4545H78.7319V54.4773H78.8171C78.9705 54.1449 79.2035 53.8778 79.516 53.6761C79.8285 53.4716 80.2319 53.3693 80.7262 53.3693C81.1694 53.3693 81.5572 53.4602 81.8896 53.642C82.2219 53.821 82.4805 54.0938 82.6651 54.4602C82.8498 54.8239 82.9421 55.2841 82.9421 55.8409V60H81.9364V55.9091C81.9364 55.3949 81.8029 54.9943 81.5359 54.7074C81.2688 54.4176 80.9023 54.2727 80.4364 54.2727C80.1154 54.2727 79.8285 54.3423 79.5756 54.4815C79.3256 54.6207 79.1282 54.8239 78.9833 55.0909C78.8384 55.358 78.766 55.6818 78.766 56.0625ZM86.706 60.1534C86.2912 60.1534 85.9148 60.0753 85.5767 59.919C85.2386 59.7599 84.9702 59.5312 84.7713 59.233C84.5724 58.9318 84.473 58.5682 84.473 58.142C84.473 57.767 84.5469 57.4631 84.6946 57.2301C84.8423 56.9943 85.0398 56.8097 85.2869 56.6761C85.5341 56.5426 85.8068 56.4432 86.1051 56.3778C86.4063 56.3097 86.7088 56.2557 87.0128 56.2159C87.4105 56.1648 87.733 56.1264 87.9801 56.1009C88.2301 56.0724 88.4119 56.0256 88.5256 55.9602C88.642 55.8949 88.7003 55.7812 88.7003 55.6193V55.5852C88.7003 55.1648 88.5852 54.8381 88.3551 54.6051C88.1278 54.3722 87.7827 54.2557 87.3196 54.2557C86.8395 54.2557 86.4631 54.3608 86.1903 54.571C85.9176 54.7812 85.7259 55.0057 85.6151 55.2443L84.6605 54.9034C84.831 54.5057 85.0582 54.196 85.3423 53.9744C85.6293 53.75 85.9418 53.5937 86.2798 53.5057C86.6207 53.4148 86.956 53.3693 87.2855 53.3693C87.4957 53.3693 87.7372 53.3949 88.0099 53.446C88.2855 53.4943 88.5511 53.5952 88.8068 53.7486C89.0653 53.902 89.2798 54.1335 89.4503 54.4432C89.6207 54.7528 89.706 55.1676 89.706 55.6875V60H88.7003V59.1136H88.6491C88.581 59.2557 88.4673 59.4077 88.3082 59.5696C88.1491 59.7315 87.9375 59.8693 87.6733 59.983C87.4091 60.0966 87.0866 60.1534 86.706 60.1534ZM86.8594 59.25C87.2571 59.25 87.5923 59.1719 87.8651 59.0156C88.1406 58.8594 88.348 58.6577 88.4872 58.4105C88.6293 58.1634 88.7003 57.9034 88.7003 57.6307V56.7102C88.6577 56.7614 88.5639 56.8082 88.419 56.8509C88.277 56.8906 88.1122 56.9261 87.9247 56.9574C87.7401 56.9858 87.5597 57.0114 87.3835 57.0341C87.2102 57.054 87.0696 57.071 86.9616 57.0852C86.7003 57.1193 86.456 57.1747 86.2287 57.2514C86.0043 57.3253 85.8224 57.4375 85.6832 57.5881C85.5469 57.7358 85.4787 57.9375 85.4787 58.1932C85.4787 58.5426 85.608 58.8068 85.8665 58.9858C86.1278 59.1619 86.4588 59.25 86.8594 59.25ZM94.1836 62.5909C93.6978 62.5909 93.2802 62.5284 92.9308 62.4034C92.5813 62.2812 92.2901 62.1193 92.0572 61.9176C91.8271 61.7188 91.6438 61.5057 91.5075 61.2784L92.3086 60.7159C92.3995 60.8352 92.5146 60.9716 92.6538 61.125C92.793 61.2812 92.9833 61.4162 93.2248 61.5298C93.4691 61.6463 93.7887 61.7045 94.1836 61.7045C94.712 61.7045 95.1481 61.5767 95.4918 61.321C95.8356 61.0653 96.0075 60.6648 96.0075 60.1193V58.7898H95.9222C95.8484 58.9091 95.7433 59.0568 95.6069 59.233C95.4734 59.4062 95.2802 59.5611 95.0273 59.6974C94.7773 59.831 94.4393 59.8977 94.0131 59.8977C93.4847 59.8977 93.0103 59.7727 92.5898 59.5227C92.1722 59.2727 91.8413 58.9091 91.5969 58.4318C91.3555 57.9545 91.2347 57.375 91.2347 56.6932C91.2347 56.0227 91.3526 55.4389 91.5884 54.9418C91.8242 54.4418 92.1523 54.0554 92.5728 53.7827C92.9933 53.5071 93.479 53.3693 94.0302 53.3693C94.4563 53.3693 94.7944 53.4403 95.0444 53.5824C95.2972 53.7216 95.4904 53.8807 95.6239 54.0597C95.7603 54.2358 95.8654 54.3807 95.9393 54.4943H96.0415V53.4545H97.0131V60.1875C97.0131 60.75 96.8853 61.2074 96.6296 61.5597C96.3768 61.9148 96.0359 62.1747 95.6069 62.3395C95.1808 62.5071 94.7063 62.5909 94.1836 62.5909ZM94.1495 58.9943C94.5529 58.9943 94.8938 58.902 95.1722 58.7173C95.4506 58.5327 95.6623 58.267 95.8072 57.9205C95.9521 57.5739 96.0245 57.1591 96.0245 56.6761C96.0245 56.2045 95.9535 55.7884 95.8114 55.4276C95.6694 55.0668 95.4592 54.7841 95.1808 54.5795C94.9023 54.375 94.5586 54.2727 94.1495 54.2727C93.7234 54.2727 93.3683 54.3807 93.0842 54.5966C92.8029 54.8125 92.5913 55.1023 92.4492 55.4659C92.31 55.8295 92.2404 56.233 92.2404 56.6761C92.2404 57.1307 92.3114 57.5327 92.4535 57.8821C92.5984 58.2287 92.8114 58.5014 93.0927 58.7003C93.3768 58.8963 93.729 58.9943 94.1495 58.9943ZM101.598 60.1364C100.968 60.1364 100.424 59.9972 99.9663 59.7188C99.5117 59.4375 99.1609 59.0455 98.9137 58.5426C98.6694 58.0369 98.5472 57.4489 98.5472 56.7784C98.5472 56.108 98.6694 55.517 98.9137 55.0057C99.1609 54.4915 99.5046 54.0909 99.945 53.804C100.388 53.5142 100.905 53.3693 101.496 53.3693C101.837 53.3693 102.174 53.4261 102.506 53.5398C102.838 53.6534 103.141 53.8381 103.414 54.0938C103.686 54.3466 103.904 54.6818 104.066 55.0994C104.228 55.517 104.309 56.0312 104.309 56.642V57.0682H99.2631V56.1989H103.286C103.286 55.8295 103.212 55.5 103.064 55.2102C102.919 54.9205 102.712 54.6918 102.442 54.5241C102.175 54.3565 101.86 54.2727 101.496 54.2727C101.096 54.2727 100.749 54.3722 100.456 54.571C100.167 54.767 99.9435 55.0227 99.7873 55.3381C99.631 55.6534 99.5529 55.9915 99.5529 56.3523V56.9318C99.5529 57.4261 99.6381 57.8452 99.8086 58.1889C99.9819 58.5298 100.222 58.7898 100.529 58.9688C100.836 59.1449 101.192 59.233 101.598 59.233C101.863 59.233 102.101 59.196 102.314 59.1222C102.53 59.0455 102.716 58.9318 102.873 58.7812C103.029 58.6278 103.15 58.4375 103.235 58.2102L104.206 58.483C104.104 58.8125 103.932 59.1023 103.691 59.3523C103.449 59.5994 103.151 59.7926 102.796 59.9318C102.441 60.0682 102.042 60.1364 101.598 60.1364ZM105.838 60V53.4545H106.81V54.4773H106.895C107.032 54.1278 107.252 53.8565 107.556 53.6634C107.86 53.4673 108.225 53.3693 108.651 53.3693C109.083 53.3693 109.442 53.4673 109.729 53.6634C110.019 53.8565 110.245 54.1278 110.407 54.4773H110.475C110.642 54.1392 110.894 53.8707 111.229 53.6719C111.564 53.4702 111.966 53.3693 112.435 53.3693C113.02 53.3693 113.499 53.5526 113.871 53.919C114.243 54.2827 114.429 54.8494 114.429 55.6193V60H113.424V55.6193C113.424 55.1364 113.292 54.7912 113.027 54.5838C112.763 54.3764 112.452 54.2727 112.094 54.2727C111.634 54.2727 111.277 54.4119 111.025 54.6903C110.772 54.9659 110.645 55.3153 110.645 55.7386V60H109.623V55.517C109.623 55.1449 109.502 54.8452 109.26 54.6179C109.019 54.3878 108.708 54.2727 108.327 54.2727C108.066 54.2727 107.821 54.3423 107.594 54.4815C107.37 54.6207 107.188 54.8139 107.049 55.0611C106.912 55.3054 106.844 55.5881 106.844 55.9091V60H105.838ZM119.012 60.1364C118.382 60.1364 117.838 59.9972 117.38 59.7188C116.926 59.4375 116.575 59.0455 116.328 58.5426C116.083 58.0369 115.961 57.4489 115.961 56.7784C115.961 56.108 116.083 55.517 116.328 55.0057C116.575 54.4915 116.919 54.0909 117.359 53.804C117.802 53.5142 118.319 53.3693 118.91 53.3693C119.251 53.3693 119.588 53.4261 119.92 53.5398C120.252 53.6534 120.555 53.8381 120.828 54.0938C121.1 54.3466 121.318 54.6818 121.48 55.0994C121.642 55.517 121.723 56.0312 121.723 56.642V57.0682H116.677V56.1989H120.7C120.7 55.8295 120.626 55.5 120.478 55.2102C120.333 54.9205 120.126 54.6918 119.856 54.5241C119.589 54.3565 119.274 54.2727 118.91 54.2727C118.51 54.2727 118.163 54.3722 117.87 54.571C117.581 54.767 117.358 55.0227 117.201 55.3381C117.045 55.6534 116.967 55.9915 116.967 56.3523V56.9318C116.967 57.4261 117.052 57.8452 117.223 58.1889C117.396 58.5298 117.636 58.7898 117.943 58.9688C118.25 59.1449 118.606 59.233 119.012 59.233C119.277 59.233 119.515 59.196 119.728 59.1222C119.944 59.0455 120.13 58.9318 120.287 58.7812C120.443 58.6278 120.564 58.4375 120.649 58.2102L121.62 58.483C121.518 58.8125 121.346 59.1023 121.105 59.3523C120.863 59.5994 120.565 59.7926 120.21 59.9318C119.855 60.0682 119.456 60.1364 119.012 60.1364ZM124.258 56.0625V60H123.252V53.4545H124.224V54.4773H124.309C124.463 54.1449 124.696 53.8778 125.008 53.6761C125.321 53.4716 125.724 53.3693 126.218 53.3693C126.662 53.3693 127.049 53.4602 127.382 53.642C127.714 53.821 127.973 54.0938 128.157 54.4602C128.342 54.8239 128.434 55.2841 128.434 55.8409V60H127.429V55.9091C127.429 55.3949 127.295 54.9943 127.028 54.7074C126.761 54.4176 126.395 54.2727 125.929 54.2727C125.608 54.2727 125.321 54.3423 125.068 54.4815C124.818 54.6207 124.62 54.8239 124.475 55.0909C124.331 55.358 124.258 55.6818 124.258 56.0625ZM133.119 53.4545V54.3068H129.727V53.4545H133.119ZM130.715 51.8864H131.721V58.125C131.721 58.4091 131.762 58.6222 131.844 58.7642C131.93 58.9034 132.038 58.9972 132.168 59.0455C132.302 59.0909 132.442 59.1136 132.59 59.1136C132.701 59.1136 132.792 59.108 132.863 59.0966C132.934 59.0824 132.991 59.071 133.033 59.0625L133.238 59.9659C133.17 59.9915 133.075 60.017 132.952 60.0426C132.83 60.071 132.675 60.0852 132.488 60.0852C132.204 60.0852 131.925 60.0241 131.653 59.902C131.383 59.7798 131.158 59.5938 130.979 59.3438C130.803 59.0938 130.715 58.7784 130.715 58.3977V51.8864ZM138.147 55.7898V56.7273H134.329V55.7898H138.147ZM140.053 60V51.2727H141.059V54.4943H141.144C141.218 54.3807 141.32 54.2358 141.451 54.0597C141.584 53.8807 141.775 53.7216 142.022 53.5824C142.272 53.4403 142.61 53.3693 143.036 53.3693C143.587 53.3693 144.073 53.5071 144.493 53.7827C144.914 54.0582 145.242 54.4489 145.478 54.9545C145.713 55.4602 145.831 56.0568 145.831 56.7443C145.831 57.4375 145.713 58.0384 145.478 58.5469C145.242 59.0526 144.915 59.4446 144.498 59.723C144.08 59.9986 143.598 60.1364 143.053 60.1364C142.632 60.1364 142.296 60.0668 142.043 59.9276C141.79 59.7855 141.596 59.625 141.459 59.446C141.323 59.2642 141.218 59.1136 141.144 58.9943H141.025V60H140.053ZM141.042 56.7273C141.042 57.2216 141.114 57.6577 141.259 58.0355C141.404 58.4105 141.615 58.7045 141.894 58.9176C142.172 59.1278 142.513 59.233 142.917 59.233C143.337 59.233 143.688 59.1222 143.969 58.9006C144.253 58.6761 144.466 58.375 144.608 57.9972C144.753 57.6165 144.826 57.1932 144.826 56.7273C144.826 56.267 144.755 55.8523 144.613 55.483C144.473 55.1108 144.262 54.8168 143.978 54.6009C143.696 54.3821 143.343 54.2727 142.917 54.2727C142.507 54.2727 142.164 54.3764 141.885 54.5838C141.607 54.7884 141.397 55.0753 141.255 55.4446C141.113 55.8111 141.042 56.2386 141.042 56.7273ZM149.296 60.1534C148.881 60.1534 148.505 60.0753 148.167 59.919C147.828 59.7599 147.56 59.5312 147.361 59.233C147.162 58.9318 147.063 58.5682 147.063 58.142C147.063 57.767 147.137 57.4631 147.284 57.2301C147.432 56.9943 147.63 56.8097 147.877 56.6761C148.124 56.5426 148.397 56.4432 148.695 56.3778C148.996 56.3097 149.299 56.2557 149.603 56.2159C150 56.1648 150.323 56.1264 150.57 56.1009C150.82 56.0724 151.002 56.0256 151.115 55.9602C151.232 55.8949 151.29 55.7812 151.29 55.6193V55.5852C151.29 55.1648 151.175 54.8381 150.945 54.6051C150.718 54.3722 150.373 54.2557 149.909 54.2557C149.429 54.2557 149.053 54.3608 148.78 54.571C148.507 54.7812 148.316 55.0057 148.205 55.2443L147.25 54.9034C147.421 54.5057 147.648 54.196 147.932 53.9744C148.219 53.75 148.532 53.5937 148.87 53.5057C149.211 53.4148 149.546 53.3693 149.875 53.3693C150.086 53.3693 150.327 53.3949 150.6 53.446C150.875 53.4943 151.141 53.5952 151.397 53.7486C151.655 53.902 151.87 54.1335 152.04 54.4432C152.211 54.7528 152.296 55.1676 152.296 55.6875V60H151.29V59.1136H151.239C151.171 59.2557 151.057 59.4077 150.898 59.5696C150.739 59.7315 150.527 59.8693 150.263 59.983C149.999 60.0966 149.676 60.1534 149.296 60.1534ZM149.449 59.25C149.847 59.25 150.182 59.1719 150.455 59.0156C150.73 58.8594 150.938 58.6577 151.077 58.4105C151.219 58.1634 151.29 57.9034 151.29 57.6307V56.7102C151.248 56.7614 151.154 56.8082 151.009 56.8509C150.867 56.8906 150.702 56.9261 150.515 56.9574C150.33 56.9858 150.15 57.0114 149.973 57.0341C149.8 57.054 149.659 57.071 149.551 57.0852C149.29 57.1193 149.046 57.1747 148.819 57.2514C148.594 57.3253 148.412 57.4375 148.273 57.5881C148.137 57.7358 148.069 57.9375 148.069 58.1932C148.069 58.5426 148.198 58.8068 148.456 58.9858C148.718 59.1619 149.049 59.25 149.449 59.25ZM156.79 60.1364C156.177 60.1364 155.648 59.9915 155.205 59.7017C154.762 59.4119 154.421 59.0128 154.183 58.5043C153.944 57.9957 153.825 57.4148 153.825 56.7614C153.825 56.0966 153.947 55.5099 154.191 55.0014C154.438 54.4901 154.782 54.0909 155.222 53.804C155.665 53.5142 156.183 53.3693 156.773 53.3693C157.234 53.3693 157.648 53.4545 158.018 53.625C158.387 53.7955 158.69 54.0341 158.925 54.3409C159.161 54.6477 159.308 55.0057 159.364 55.4148H158.359C158.282 55.1165 158.112 54.8523 157.847 54.6222C157.586 54.3892 157.234 54.2727 156.79 54.2727C156.398 54.2727 156.055 54.375 155.759 54.5795C155.467 54.7812 155.238 55.0668 155.073 55.4361C154.911 55.8026 154.83 56.233 154.83 56.7273C154.83 57.233 154.91 57.6733 155.069 58.0483C155.231 58.4233 155.458 58.7145 155.751 58.9219C156.046 59.1293 156.393 59.233 156.79 59.233C157.052 59.233 157.289 59.1875 157.502 59.0966C157.715 59.0057 157.896 58.875 158.043 58.7045C158.191 58.5341 158.296 58.3295 158.359 58.0909H159.364C159.308 58.4773 159.167 58.8253 158.942 59.1349C158.721 59.4418 158.427 59.6861 158.06 59.8679C157.697 60.0469 157.273 60.1364 156.79 60.1364ZM161.772 57.6136L161.755 56.3693H161.96L164.823 53.4545H166.067L163.016 56.5398H162.931L161.772 57.6136ZM160.835 60V51.2727H161.84V60H160.835ZM164.994 60L162.437 56.7614L163.153 56.0625L166.272 60H164.994ZM169.837 60.1364C169.206 60.1364 168.662 59.9972 168.205 59.7188C167.75 59.4375 167.399 59.0455 167.152 58.5426C166.908 58.0369 166.786 57.4489 166.786 56.7784C166.786 56.108 166.908 55.517 167.152 55.0057C167.399 54.4915 167.743 54.0909 168.183 53.804C168.626 53.5142 169.143 53.3693 169.734 53.3693C170.075 53.3693 170.412 53.4261 170.744 53.5398C171.077 53.6534 171.379 53.8381 171.652 54.0938C171.925 54.3466 172.142 54.6818 172.304 55.0994C172.466 55.517 172.547 56.0312 172.547 56.642V57.0682H167.501V56.1989H171.524C171.524 55.8295 171.45 55.5 171.303 55.2102C171.158 54.9205 170.95 54.6918 170.68 54.5241C170.413 54.3565 170.098 54.2727 169.734 54.2727C169.334 54.2727 168.987 54.3722 168.695 54.571C168.405 54.767 168.182 55.0227 168.026 55.3381C167.869 55.6534 167.791 55.9915 167.791 56.3523V56.9318C167.791 57.4261 167.876 57.8452 168.047 58.1889C168.22 58.5298 168.46 58.7898 168.767 58.9688C169.074 59.1449 169.43 59.233 169.837 59.233C170.101 59.233 170.339 59.196 170.553 59.1222C170.768 59.0455 170.955 58.9318 171.111 58.7812C171.267 58.6278 171.388 58.4375 171.473 58.2102L172.445 58.483C172.342 58.8125 172.17 59.1023 171.929 59.3523C171.688 59.5994 171.389 59.7926 171.034 59.9318C170.679 60.0682 170.28 60.1364 169.837 60.1364ZM175.082 56.0625V60H174.077V53.4545H175.048V54.4773H175.134C175.287 54.1449 175.52 53.8778 175.832 53.6761C176.145 53.4716 176.548 53.3693 177.043 53.3693C177.486 53.3693 177.874 53.4602 178.206 53.642C178.538 53.821 178.797 54.0938 178.982 54.4602C179.166 54.8239 179.259 55.2841 179.259 55.8409V60H178.253V55.9091C178.253 55.3949 178.119 54.9943 177.852 54.7074C177.585 54.4176 177.219 54.2727 176.753 54.2727C176.432 54.2727 176.145 54.3423 175.892 54.4815C175.642 54.6207 175.445 54.8239 175.3 55.0909C175.155 55.358 175.082 55.6818 175.082 56.0625ZM183.568 60.1364C183.022 60.1364 182.541 59.9986 182.123 59.723C181.706 59.4446 181.379 59.0526 181.143 58.5469C180.907 58.0384 180.789 57.4375 180.789 56.7443C180.789 56.0568 180.907 55.4602 181.143 54.9545C181.379 54.4489 181.707 54.0582 182.127 53.7827C182.548 53.5071 183.034 53.3693 183.585 53.3693C184.011 53.3693 184.348 53.4403 184.595 53.5824C184.845 53.7216 185.035 53.8807 185.166 54.0597C185.299 54.2358 185.403 54.3807 185.477 54.4943H185.562V51.2727H186.568V60H185.596V58.9943H185.477C185.403 59.1136 185.298 59.2642 185.162 59.446C185.025 59.625 184.831 59.7855 184.578 59.9276C184.325 60.0668 183.988 60.1364 183.568 60.1364ZM183.704 59.233C184.108 59.233 184.449 59.1278 184.727 58.9176C185.005 58.7045 185.217 58.4105 185.362 58.0355C185.507 57.6577 185.579 57.2216 185.579 56.7273C185.579 56.2386 185.508 55.8111 185.366 55.4446C185.224 55.0753 185.014 54.7884 184.735 54.5838C184.457 54.3764 184.113 54.2727 183.704 54.2727C183.278 54.2727 182.923 54.3821 182.639 54.6009C182.358 54.8168 182.146 55.1108 182.004 55.483C181.865 55.8523 181.795 56.267 181.795 56.7273C181.795 57.1932 181.866 57.6165 182.008 57.9972C182.153 58.375 182.366 58.6761 182.647 58.9006C182.931 59.1222 183.284 59.233 183.704 59.233ZM192.299 55.7898V56.7273H188.481V55.7898H192.299ZM198.705 54.9205L197.802 55.1761C197.745 55.0256 197.661 54.8793 197.55 54.7372C197.442 54.5923 197.295 54.473 197.107 54.3793C196.92 54.2855 196.68 54.2386 196.387 54.2386C195.987 54.2386 195.653 54.331 195.386 54.5156C195.121 54.6974 194.989 54.929 194.989 55.2102C194.989 55.4602 195.08 55.6577 195.262 55.8026C195.444 55.9474 195.728 56.0682 196.114 56.1648L197.086 56.4034C197.671 56.5455 198.107 56.7628 198.394 57.0554C198.681 57.3452 198.825 57.7187 198.825 58.1761C198.825 58.5511 198.717 58.8864 198.501 59.1818C198.288 59.4773 197.989 59.7102 197.606 59.8807C197.222 60.0511 196.776 60.1364 196.268 60.1364C195.6 60.1364 195.048 59.9915 194.61 59.7017C194.173 59.4119 193.896 58.9886 193.779 58.4318L194.734 58.1932C194.825 58.5455 194.996 58.8097 195.249 58.9858C195.505 59.1619 195.839 59.25 196.251 59.25C196.719 59.25 197.092 59.1506 197.367 58.9517C197.646 58.75 197.785 58.5085 197.785 58.2273C197.785 58 197.705 57.8097 197.546 57.6562C197.387 57.5 197.143 57.3835 196.813 57.3068L195.722 57.0511C195.123 56.9091 194.683 56.6889 194.401 56.3906C194.123 56.0895 193.984 55.7131 193.984 55.2614C193.984 54.892 194.087 54.5653 194.295 54.2812C194.505 53.9972 194.79 53.7741 195.151 53.6122C195.515 53.4503 195.927 53.3693 196.387 53.3693C197.035 53.3693 197.543 53.5114 197.913 53.7955C198.285 54.0795 198.549 54.4545 198.705 54.9205ZM203.083 60.1364C202.452 60.1364 201.908 59.9972 201.451 59.7188C200.996 59.4375 200.645 59.0455 200.398 58.5426C200.154 58.0369 200.032 57.4489 200.032 56.7784C200.032 56.108 200.154 55.517 200.398 55.0057C200.645 54.4915 200.989 54.0909 201.429 53.804C201.873 53.5142 202.39 53.3693 202.98 53.3693C203.321 53.3693 203.658 53.4261 203.99 53.5398C204.323 53.6534 204.625 53.8381 204.898 54.0938C205.171 54.3466 205.388 54.6818 205.55 55.0994C205.712 55.517 205.793 56.0312 205.793 56.642V57.0682H200.748V56.1989H204.77C204.77 55.8295 204.696 55.5 204.549 55.2102C204.404 54.9205 204.196 54.6918 203.926 54.5241C203.659 54.3565 203.344 54.2727 202.98 54.2727C202.58 54.2727 202.233 54.3722 201.941 54.571C201.651 54.767 201.428 55.0227 201.272 55.3381C201.115 55.6534 201.037 55.9915 201.037 56.3523V56.9318C201.037 57.4261 201.123 57.8452 201.293 58.1889C201.466 58.5298 201.706 58.7898 202.013 58.9688C202.32 59.1449 202.676 59.233 203.083 59.233C203.347 59.233 203.586 59.196 203.799 59.1222C204.015 59.0455 204.201 58.9318 204.357 58.7812C204.513 58.6278 204.634 58.4375 204.719 58.2102L205.691 58.483C205.588 58.8125 205.417 59.1023 205.175 59.3523C204.934 59.5994 204.635 59.7926 204.28 59.9318C203.925 60.0682 203.526 60.1364 203.083 60.1364ZM207.323 60V53.4545H208.294V54.4432H208.363C208.482 54.1193 208.698 53.8565 209.01 53.6548C209.323 53.4531 209.675 53.3523 210.067 53.3523C210.141 53.3523 210.233 53.3537 210.344 53.3565C210.455 53.3594 210.539 53.3636 210.596 53.3693V54.392C210.561 54.3835 210.483 54.3707 210.361 54.3537C210.242 54.3338 210.115 54.3239 209.982 54.3239C209.664 54.3239 209.38 54.3906 209.13 54.5241C208.882 54.6548 208.686 54.8366 208.542 55.0696C208.4 55.2997 208.328 55.5625 208.328 55.858V60H207.323ZM217.339 53.4545L214.919 60H213.896L211.475 53.4545H212.566L214.373 58.6705H214.441L216.248 53.4545H217.339ZM218.667 60V53.4545H219.672V60H218.667ZM219.178 52.3636C218.982 52.3636 218.813 52.2969 218.671 52.1634C218.532 52.0298 218.462 51.8693 218.462 51.6818C218.462 51.4943 218.532 51.3338 218.671 51.2003C218.813 51.0668 218.982 51 219.178 51C219.374 51 219.542 51.0668 219.681 51.2003C219.823 51.3338 219.894 51.4943 219.894 51.6818C219.894 51.8693 219.823 52.0298 219.681 52.1634C219.542 52.2969 219.374 52.3636 219.178 52.3636ZM224.173 60.1364C223.56 60.1364 223.031 59.9915 222.588 59.7017C222.145 59.4119 221.804 59.0128 221.565 58.5043C221.327 57.9957 221.207 57.4148 221.207 56.7614C221.207 56.0966 221.33 55.5099 221.574 55.0014C221.821 54.4901 222.165 54.0909 222.605 53.804C223.048 53.5142 223.565 53.3693 224.156 53.3693C224.616 53.3693 225.031 53.4545 225.401 53.625C225.77 53.7955 226.072 54.0341 226.308 54.3409C226.544 54.6477 226.69 55.0057 226.747 55.4148H225.741C225.665 55.1165 225.494 54.8523 225.23 54.6222C224.969 54.3892 224.616 54.2727 224.173 54.2727C223.781 54.2727 223.438 54.375 223.142 54.5795C222.849 54.7812 222.621 55.0668 222.456 55.4361C222.294 55.8026 222.213 56.233 222.213 56.7273C222.213 57.233 222.293 57.6733 222.452 58.0483C222.614 58.4233 222.841 58.7145 223.134 58.9219C223.429 59.1293 223.776 59.233 224.173 59.233C224.435 59.233 224.672 59.1875 224.885 59.0966C225.098 59.0057 225.278 58.875 225.426 58.7045C225.574 58.5341 225.679 58.3295 225.741 58.0909H226.747C226.69 58.4773 226.55 58.8253 226.325 59.1349C226.104 59.4418 225.81 59.6861 225.443 59.8679C225.08 60.0469 224.656 60.1364 224.173 60.1364ZM230.962 60.1364C230.331 60.1364 229.787 59.9972 229.33 59.7188C228.875 59.4375 228.524 59.0455 228.277 58.5426C228.033 58.0369 227.911 57.4489 227.911 56.7784C227.911 56.108 228.033 55.517 228.277 55.0057C228.524 54.4915 228.868 54.0909 229.308 53.804C229.751 53.5142 230.268 53.3693 230.859 53.3693C231.2 53.3693 231.537 53.4261 231.869 53.5398C232.202 53.6534 232.504 53.8381 232.777 54.0938C233.05 54.3466 233.267 54.6818 233.429 55.0994C233.591 55.517 233.672 56.0312 233.672 56.642V57.0682H228.626V56.1989H232.649C232.649 55.8295 232.575 55.5 232.428 55.2102C232.283 54.9205 232.075 54.6918 231.805 54.5241C231.538 54.3565 231.223 54.2727 230.859 54.2727C230.459 54.2727 230.112 54.3722 229.82 54.571C229.53 54.767 229.307 55.0227 229.151 55.3381C228.994 55.6534 228.916 55.9915 228.916 56.3523V56.9318C228.916 57.4261 229.001 57.8452 229.172 58.1889C229.345 58.5298 229.585 58.7898 229.892 58.9688C230.199 59.1449 230.555 59.233 230.962 59.233C231.226 59.233 231.464 59.196 231.678 59.1222C231.893 59.0455 232.08 58.9318 232.236 58.7812C232.392 58.6278 232.513 58.4375 232.598 58.2102L233.57 58.483C233.467 58.8125 233.295 59.1023 233.054 59.3523C232.813 59.5994 232.514 59.7926 232.159 59.9318C231.804 60.0682 231.405 60.1364 230.962 60.1364Z" fill="black"/>
</svg>
